<?xml version="1.0" encoding="utf-8"?>
<!-- Generator: Adobe Illustrator 15.1.0, SVG Export Plug-In . SVG Version: 6.00 Build 0)  -->
<!DOCTYPE svg PUBLIC "-//W3C//DTD SVG 1.1//EN" "http://www.w3.org/Graphics/SVG/1.1/DTD/svg11.dtd">
<svg version="1.1" id="Ebene_1" xmlns="http://www.w3.org/2000/svg" xmlns:xlink="http://www.w3.org/1999/xlink" x="0px" y="0px"
	 width="100px" height="100px" viewBox="0 0 100 100" enable-background="new 0 0 100 100" xml:space="preserve">
<g>
	<path fill="#1A171B" d="M36.378-0.028V44.58l13.689-5.873l13.557,5.873V-0.028H36.378z M56.628,31.127l-6.622-4.771l-6.623,4.771
		l2.491-7.772l-6.583-4.821l8.161-0.033l2.555-7.752L52.56,18.5l8.162,0.033l-6.583,4.821L56.628,31.127z"/>
	<g>
		<path fill="#1A171B" d="M14.442,69.082l-1.896-5.641H12.44l-2.001,5.641H9.181l-3.093-9.719h1.213l0.167,0.939l2.365,7.43h0.106
			l2.093-5.914l-0.818-2.455h1.242l0.229,1.045l2.396,7.324h0.092l2.638-7.369l0.228-1h1.152l-3.487,9.719H14.442z"/>
		<path fill="#1A171B" d="M28.226,65.398c0.02,1.192-0.293,2.123-0.94,2.79c-0.646,0.667-1.566,1.001-2.76,1.001
			c-1.143,0-2.02-0.318-2.631-0.955c-0.612-0.638-0.908-1.537-0.887-2.699l0.015-1.318l-0.015-4.854h1.197l-0.045,6.021
			c-0.02,1.83,0.8,2.745,2.457,2.745c1.679,0,2.507-0.864,2.487-2.594l-0.061-6.172h1.213l-0.016,4.943L28.226,65.398z"/>
		<path fill="#1A171B" d="M38.795,69.082h-1.273l-5.02-7.778H32.41l-0.015,4.58l0.045,3.198h-1.137l0.076-2.881l-0.045-6.838h1.273
			l5.004,7.778h0.106l-0.016-7.719l1.152-0.091l-0.091,6.898L38.795,69.082z"/>
		<path fill="#1A171B" d="M48.894,60.486c0.738,0.787,1.107,1.92,1.107,3.396c0,1.709-0.399,3.019-1.198,3.928
			s-1.946,1.364-3.442,1.364c-0.99,0-2.041-0.03-3.154-0.092h-0.015l0.076-2.926l-0.076-6.793h0.015l3.504-0.062
			C47.094,59.303,48.155,59.697,48.894,60.486z M47.931,67.15c0.551-0.673,0.827-1.677,0.827-3.011c0-2.548-1.046-3.821-3.14-3.821
			c-0.637,0-1.369,0.021-2.197,0.062l-0.061,5.672l0.045,2.017c0.707,0.062,1.426,0.092,2.152,0.092
			C46.589,68.158,47.38,67.822,47.931,67.15z"/>
		<path fill="#1A171B" d="M57.977,69.082h-5.459l0.076-2.926l-0.076-6.793h5.474l0.062,0.121l-0.091,0.939l-2.29-0.047l-1.925,0.031
			l-0.031,3.185l1.82,0.03l1.606-0.045l0.091,0.104l-0.105,0.94l-1.698-0.03L53.7,64.607l-0.015,1.441l0.046,2.017l1.926,0.015
			l2.334-0.061l0.076,0.121L57.977,69.082z"/>
		<path fill="#1A171B" d="M66.831,68.795l-0.014,0.15c-0.365,0.143-0.738,0.232-1.123,0.273l-0.166-0.105
			c-0.83-1.244-1.572-2.457-2.229-3.641h-1.774v0.577l0.062,3.032h-1.229l0.076-2.928l-0.076-6.793l2.973-0.016
			c0.949,0,1.686,0.24,2.205,0.721c0.521,0.48,0.781,1.165,0.781,2.055c0,0.668-0.175,1.267-0.522,1.797
			c-0.349,0.531-0.841,0.943-1.479,1.236C64.981,66.258,65.821,67.471,66.831,68.795z M63.36,64.488
			c1.131-0.322,1.697-1.076,1.697-2.259c0-1.202-0.667-1.829-2.001-1.881l-1.471,0.046l-0.046,4.049L63.36,64.488z"/>
		<path fill="#1A171B" d="M74.05,69.082h-4.792l0.076-2.926l-0.076-6.793h1.243l-0.076,6.688l0.045,2.018h3.594l0.092,0.104
			L74.05,69.082z"/>
		<path fill="#1A171B" d="M77.386,69.082h-1.229l0.076-2.926l-0.076-6.793h1.244l-0.076,6.688L77.386,69.082z"/>
		<path fill="#1A171B" d="M85.573,59.742l-0.197,1.168l-0.213,0.062c-0.605-0.465-1.243-0.696-1.91-0.696
			c-0.374,0-0.7,0.074-0.979,0.227c-0.277,0.152-0.49,0.35-0.637,0.592s-0.22,0.495-0.22,0.758c0,0.273,0.083,0.514,0.25,0.721
			s0.376,0.387,0.629,0.539c0.252,0.151,0.596,0.334,1.03,0.545c0.547,0.254,0.986,0.488,1.32,0.705
			c0.332,0.219,0.618,0.493,0.856,0.826c0.237,0.334,0.356,0.738,0.356,1.215c0,0.504-0.137,0.969-0.41,1.395
			c-0.272,0.425-0.656,0.764-1.151,1.017c-0.496,0.253-1.062,0.38-1.698,0.38c-0.93,0-1.8-0.229-2.607-0.684l0.151-1.243
			l0.167-0.075c0.354,0.344,0.746,0.598,1.176,0.766c0.428,0.166,0.842,0.25,1.235,0.25c0.384,0,0.726-0.075,1.022-0.228
			c0.299-0.151,0.527-0.354,0.684-0.606c0.157-0.252,0.234-0.521,0.234-0.805c0-0.424-0.161-0.766-0.484-1.023
			c-0.322-0.258-0.812-0.537-1.471-0.84c-0.536-0.264-0.965-0.498-1.289-0.705c-0.323-0.207-0.602-0.477-0.834-0.805
			s-0.35-0.729-0.35-1.205c0-0.496,0.135-0.951,0.402-1.365s0.643-0.739,1.122-0.979c0.479-0.236,1.028-0.355,1.646-0.355
			C84.102,59.287,84.825,59.439,85.573,59.742z"/>
		<path fill="#1A171B" d="M93.821,60.425l-1.697-0.091h-0.985l-0.046,5.717l0.046,3.031h-1.229l0.092-2.926l-0.076-5.822H88.94
			l-1.729,0.091l-0.076-0.121l0.091-0.94h6.596l0.092,0.121L93.821,60.425z"/>
	</g>
</g>
</svg>
